<?xml version="1.0" encoding="UTF-8" standalone="no"?>
<!-- Created with Inkscape (http://www.inkscape.org/) -->

<svg
   xmlns:dc="http://purl.org/dc/elements/1.1/"
   xmlns:cc="http://creativecommons.org/ns#"
   xmlns:rdf="http://www.w3.org/1999/02/22-rdf-syntax-ns#"
   xmlns:svg="http://www.w3.org/2000/svg"
   xmlns="http://www.w3.org/2000/svg"
   xmlns:sodipodi="http://sodipodi.sourceforge.net/DTD/sodipodi-0.dtd"
   xmlns:inkscape="http://www.inkscape.org/namespaces/inkscape"
   width="512"
   height="198.68944"
   viewBox="0 0 135.46496 52.569251"
   version="1.1"
   id="svg4802"
   inkscape:version="0.92.3 (2405546, 2018-03-11)"
   sodipodi:docname="Multivarejo logo.svg">
  <title
     id="title5601">Multivarejo</title>
  <defs
     id="defs4796">
    <clipPath
       id="clipPath3378"
       clipPathUnits="userSpaceOnUse">
      <path
         inkscape:connector-curvature="0"
         id="path3376"
         d="m 575.613,69.065 c -0.196,-0.081 -0.76,-0.32 -0.95,-0.394 -6.168,-2.582 -12.604,-5.821 -16.984,-9.478 -1.937,-1.62 -1.929,-3.566 0.184,-4.943 2.587,-1.691 5.684,-3.059 9.028,-4.1 -0.004,0.001 -0.008,0.003 -0.011,0.004 -1.939,0.603 -3.794,1.318 -5.515,2.141 -2.258,1.206 -5.848,5.732 0.112,9.663 0.016,0.008 4.591,2.994 10.192,3.975 1.06,0.2 2.193,0.309 3.4,0.309 5.969,0 8.43,-3.499 8.43,-3.499 -1.047,4.31 -3.094,6.723 -5.844,6.723 -0.643,0 -1.432,-0.151 -2.042,-0.401 m -8.701,-18.922 c -0.006,0.002 -0.014,0.004 -0.021,0.007 0.007,-0.003 0.014,-0.006 0.021,-0.007" />
    </clipPath>
    <clipPath
       id="clipPath3386"
       clipPathUnits="userSpaceOnUse">
      <path
         inkscape:connector-curvature="0"
         id="path3384"
         d="M 548.087,65.98 578.451,80.225 590.929,53.629 560.565,39.384 Z" />
    </clipPath>
    <linearGradient
       id="linearGradient3398"
       spreadMethod="pad"
       gradientTransform="matrix(17.791873,8.3468606,8.3468606,-17.791873,564.64751,56.586807)"
       gradientUnits="userSpaceOnUse"
       y2="0"
       x2="1"
       y1="0"
       x1="0">
      <stop
         id="stop3392"
         offset="0"
         style="stop-opacity:1;stop-color:#942972" />
      <stop
         id="stop3394"
         offset="0.177914"
         style="stop-opacity:1;stop-color:#942972" />
      <stop
         id="stop3396"
         offset="1"
         style="stop-opacity:1;stop-color:#ed1847" />
    </linearGradient>
    <clipPath
       id="clipPath3416"
       clipPathUnits="userSpaceOnUse">
      <path
         inkscape:connector-curvature="0"
         id="path3414"
         d="m 575.72,69.108 c -10e-4,0 -0.003,-0.001 -0.003,-0.001 0.595,0.225 1.33,0.359 1.938,0.359 2.75,0 4.797,-2.413 5.844,-6.723 0,0 4.129,-10.324 4.234,-11.514 0,1.694 -3.215,12.764 -4.568,16.575 -0.548,1.544 -2.033,2.665 -3.491,2.665 -0.737,0 -1.989,-0.557 -3.954,-1.361 m -0.097,-0.038 c 0.03,0.009 0.061,0.023 0.094,0.037 -0.033,-0.013 -0.064,-0.025 -0.094,-0.037" />
    </clipPath>
    <clipPath
       id="clipPath3424"
       clipPathUnits="userSpaceOnUse">
      <path
         inkscape:connector-curvature="0"
         id="path3422"
         d="m 576.938,47.462 -7.3,20.918 16.78,5.856 7.301,-20.918 z" />
    </clipPath>
    <linearGradient
       id="linearGradient3434"
       spreadMethod="pad"
       gradientTransform="matrix(-5.4761575,15.691339,15.691339,5.4761575,585.54811,50.803418)"
       gradientUnits="userSpaceOnUse"
       y2="0"
       x2="1"
       y1="0"
       x1="0">
      <stop
         id="stop3430"
         offset="0"
         style="stop-opacity:1;stop-color:#ed1847" />
      <stop
         id="stop3432"
         offset="1"
         style="stop-opacity:1;stop-color:#f68b1f" />
    </linearGradient>
    <clipPath
       id="clipPath3452"
       clipPathUnits="userSpaceOnUse">
      <path
         inkscape:connector-curvature="0"
         id="path3450"
         d="m 561.678,56.02 c 0,-5.801 7.958,-6.896 12.345,-6.896 10.813,0 9.476,13.619 9.476,13.619 0,0 -2.461,3.499 -8.43,3.499 -8.46,0 -13.391,-5.328 -13.391,-10.222" />
    </clipPath>
    <clipPath
       id="clipPath3460"
       clipPathUnits="userSpaceOnUse">
      <path
         inkscape:connector-curvature="0"
         id="path3458"
         d="M 567.074,76.032 592.072,62.253 579.44,39.334 554.442,53.113 Z" />
    </clipPath>
    <linearGradient
       id="linearGradient3470"
       spreadMethod="pad"
       gradientTransform="matrix(14.525449,-8.0061456,-8.0061456,-14.525449,564.84632,62.372983)"
       gradientUnits="userSpaceOnUse"
       y2="0"
       x2="1"
       y1="0"
       x1="0">
      <stop
         id="stop3466"
         offset="0"
         style="stop-opacity:1;stop-color:#ed1847" />
      <stop
         id="stop3468"
         offset="1"
         style="stop-opacity:1;stop-color:#f68b1f" />
    </linearGradient>
    <clipPath
       id="clipPath3488"
       clipPathUnits="userSpaceOnUse">
      <path
         inkscape:connector-curvature="0"
         id="path3486"
         d="m 574.023,49.124 c -1.767,0 -4.113,0.181 -6.284,0.771 4.119,-1.205 8.571,-1.92 12.878,-2.134 h 0.001 c 6.475,0 2.881,14.982 2.881,14.982 0,0 1.337,-13.619 -9.476,-13.619" />
    </clipPath>
    <clipPath
       id="clipPath3496"
       clipPathUnits="userSpaceOnUse">
      <path
         inkscape:connector-curvature="0"
         id="path3494"
         d="m 569.143,67.762 21.836,-6.106 -5.289,-18.914 -21.836,6.105 z" />
    </clipPath>
    <linearGradient
       id="linearGradient3508"
       spreadMethod="pad"
       gradientTransform="matrix(14.292765,-3.9965548,-3.9965548,-14.292765,570.20968,57.829667)"
       gradientUnits="userSpaceOnUse"
       y2="0"
       x2="1"
       y1="0"
       x1="0">
      <stop
         id="stop3502"
         offset="0"
         style="stop-opacity:1;stop-color:#bb005a" />
      <stop
         id="stop3504"
         offset="0.184049"
         style="stop-opacity:1;stop-color:#bb005a" />
      <stop
         id="stop3506"
         offset="1"
         style="stop-opacity:1;stop-color:#ed1847" />
    </linearGradient>
    <clipPath
       id="clipPath3526"
       clipPathUnits="userSpaceOnUse">
      <path
         inkscape:connector-curvature="0"
         id="path3524"
         d="m 580.618,47.761 h -0.001 c 0.915,-0.046 1.82,-0.07 2.72,-0.07 2.542,0 4.399,1.403 4.399,3.499 0,0.954 -4.237,11.553 -4.237,11.553 0,0 3.594,-14.982 -2.881,-14.982" />
    </clipPath>
    <clipPath
       id="clipPath3534"
       clipPathUnits="userSpaceOnUse">
      <path
         inkscape:connector-curvature="0"
         id="path3532"
         d="m 581.342,64.895 10.945,-3.684 -5.275,-15.672 -10.945,3.684 z" />
    </clipPath>
    <linearGradient
       id="linearGradient3544"
       spreadMethod="pad"
       gradientTransform="matrix(7.1595003,-2.4096607,-2.4096607,-7.1595003,581.2232,55.532646)"
       gradientUnits="userSpaceOnUse"
       y2="0"
       x2="1"
       y1="0"
       x1="0">
      <stop
         id="stop3540"
         offset="0"
         style="stop-opacity:1;stop-color:#d70f52" />
      <stop
         id="stop3542"
         offset="1"
         style="stop-opacity:1;stop-color:#bb005a" />
    </linearGradient>
    <clipPath
       id="clipPath3562"
       clipPathUnits="userSpaceOnUse">
      <path
         inkscape:connector-curvature="0"
         id="path3560"
         d="m 561.503,61.976 c -5.997,-3.938 -2.401,-8.475 -0.138,-9.681 1.712,-0.818 3.556,-1.527 5.481,-2.13 -2.835,0.952 -5.168,2.715 -5.168,5.855 0,4.271 3.753,8.871 10.335,9.973 -5.783,-0.907 -10.492,-4.005 -10.51,-4.017" />
    </clipPath>
    <clipPath
       id="clipPath3570"
       clipPathUnits="userSpaceOnUse">
      <path
         inkscape:connector-curvature="0"
         id="path3568"
         d="m 557.185,70.984 19.613,-6.601 -6.464,-19.208 -19.614,6.601 z" />
    </clipPath>
    <linearGradient
       id="linearGradient3580"
       spreadMethod="pad"
       gradientTransform="matrix(9.6592562,-3.2509993,-3.2509993,-9.6592562,559.61302,61.377314)"
       gradientUnits="userSpaceOnUse"
       y2="0"
       x2="1"
       y1="0"
       x1="0">
      <stop
         id="stop3576"
         offset="0"
         style="stop-opacity:1;stop-color:#d70f52" />
      <stop
         id="stop3578"
         offset="1"
         style="stop-opacity:1;stop-color:#bb005a" />
    </linearGradient>
    <clipPath
       id="clipPath5642"
       clipPathUnits="userSpaceOnUse">
      <path
         inkscape:connector-curvature="0"
         id="path5640"
         d="m 556.484,59.621 v 0 -0.001 z" />
    </clipPath>
    <radialGradient
       id="radialGradient5656"
       spreadMethod="pad"
       gradientTransform="matrix(1.447e-4,0,0,-1.447e-4,556.48445,59.621033)"
       gradientUnits="userSpaceOnUse"
       r="1"
       cy="0"
       cx="0"
       fy="0"
       fx="0">
      <stop
         id="stop5648"
         offset="0"
         style="stop-opacity:1;stop-color:#fff200" />
      <stop
         id="stop5650"
         offset="0.12"
         style="stop-opacity:1;stop-color:#fff200" />
      <stop
         id="stop5652"
         offset="0.2644"
         style="stop-opacity:1;stop-color:#fff200" />
      <stop
         id="stop5654"
         offset="1"
         style="stop-opacity:1;stop-color:#ef4423" />
    </radialGradient>
  </defs>
  <sodipodi:namedview
     id="base"
     pagecolor="#ffffff"
     bordercolor="#666666"
     borderopacity="1.0"
     inkscape:pageopacity="0.0"
     inkscape:pageshadow="2"
     inkscape:zoom="0.35"
     inkscape:cx="64.560973"
     inkscape:cy="21.774662"
     inkscape:document-units="px"
     inkscape:current-layer="layer1"
     showgrid="false"
     units="px"
     fit-margin-top="0"
     fit-margin-left="0"
     fit-margin-right="0"
     fit-margin-bottom="0"
     inkscape:window-width="1360"
     inkscape:window-height="714"
     inkscape:window-x="0"
     inkscape:window-y="28"
     inkscape:window-maximized="1" />
  <metadata
     id="metadata4799">
    <rdf:RDF>
      <cc:Work
         rdf:about="">
        <dc:format>image/svg+xml</dc:format>
        <dc:type
           rdf:resource="http://purl.org/dc/dcmitype/StillImage" />
        <dc:title>Multivarejo</dc:title>
      </cc:Work>
    </rdf:RDF>
  </metadata>
  <g
     inkscape:label="Camada 1"
     inkscape:groupmode="layer"
     id="layer1"
     transform="translate(-60.706947,-54.168602)">
    <g
       transform="matrix(6.5420672,0,0,6.5420672,-358.10813,-1672.7636)"
       id="g3642">
      <g
         transform="matrix(0.35277777,0,0,-0.35277777,-132.21436,288.83337)"
         id="g3372">
        <g
           clip-path="url(#clipPath3378)"
           id="g3374">
          <g
             id="g3380">
            <g
               clip-path="url(#clipPath3386)"
               id="g3382">
              <g
                 id="g3388">
                <g
                   id="g3390">
                  <path
                     inkscape:connector-curvature="0"
                     id="path3400"
                     style="fill:url(#linearGradient3398);stroke:none"
                     d="M 548.087,65.98 578.451,80.225 590.929,53.629 560.565,39.384 Z" />
                </g>
              </g>
            </g>
          </g>
        </g>
      </g>
      <g
         transform="matrix(0.35277777,0,0,-0.35277777,-132.21436,288.83337)"
         id="g3410">
        <g
           clip-path="url(#clipPath3416)"
           id="g3412">
          <g
             id="g3418">
            <g
               clip-path="url(#clipPath3424)"
               id="g3420">
              <g
                 id="g3426">
                <g
                   id="g3428">
                  <path
                     inkscape:connector-curvature="0"
                     id="path3436"
                     style="fill:url(#linearGradient3434);stroke:none"
                     d="m 576.938,47.462 -7.3,20.918 16.78,5.856 7.301,-20.918 z" />
                </g>
              </g>
            </g>
          </g>
        </g>
      </g>
      <g
         transform="matrix(0.35277777,0,0,-0.35277777,-132.21436,288.83337)"
         id="g3446">
        <g
           clip-path="url(#clipPath3452)"
           id="g3448">
          <g
             id="g3454">
            <g
               clip-path="url(#clipPath3460)"
               id="g3456">
              <g
                 id="g3462">
                <g
                   id="g3464">
                  <path
                     inkscape:connector-curvature="0"
                     id="path3472"
                     style="fill:url(#linearGradient3470);stroke:none"
                     d="M 567.074,76.032 592.072,62.253 579.44,39.334 554.442,53.113 Z" />
                </g>
              </g>
            </g>
          </g>
        </g>
      </g>
      <g
         transform="matrix(0.35277777,0,0,-0.35277777,-132.21436,288.83337)"
         id="g3482">
        <g
           clip-path="url(#clipPath3488)"
           id="g3484">
          <g
             id="g3490">
            <g
               clip-path="url(#clipPath3496)"
               id="g3492">
              <g
                 id="g3498">
                <g
                   id="g3500">
                  <path
                     inkscape:connector-curvature="0"
                     id="path3510"
                     style="fill:url(#linearGradient3508);stroke:none"
                     d="m 569.143,67.762 21.836,-6.106 -5.289,-18.914 -21.836,6.105 z" />
                </g>
              </g>
            </g>
          </g>
        </g>
      </g>
      <g
         transform="matrix(0.35277777,0,0,-0.35277777,-132.21436,288.83337)"
         id="g3520">
        <g
           clip-path="url(#clipPath3526)"
           id="g3522">
          <g
             id="g3528">
            <g
               clip-path="url(#clipPath3534)"
               id="g3530">
              <g
                 id="g3536">
                <g
                   id="g3538">
                  <path
                     inkscape:connector-curvature="0"
                     id="path3546"
                     style="fill:url(#linearGradient3544);stroke:none"
                     d="m 581.342,64.895 10.945,-3.684 -5.275,-15.672 -10.945,3.684 z" />
                </g>
              </g>
            </g>
          </g>
        </g>
      </g>
      <g
         transform="matrix(0.35277777,0,0,-0.35277777,-132.21436,288.83337)"
         id="g3556">
        <g
           clip-path="url(#clipPath3562)"
           id="g3558">
          <g
             id="g3564">
            <g
               clip-path="url(#clipPath3570)"
               id="g3566">
              <g
                 id="g3572">
                <g
                   id="g3574">
                  <path
                     inkscape:connector-curvature="0"
                     id="path3582"
                     style="fill:url(#linearGradient3580);stroke:none"
                     d="m 557.185,70.984 19.613,-6.601 -6.464,-19.208 -19.614,6.601 z" />
                </g>
              </g>
            </g>
          </g>
        </g>
      </g>
      <g
         transform="matrix(0.35277777,0,0,-0.35277777,79.749588,267.45797)"
         id="g3592">
        <path
           inkscape:connector-curvature="0"
           id="path3594"
           style="fill:#f36f21;fill-opacity:1;fill-rule:nonzero;stroke:none"
           d="m 0,0 c -0.87,0 -1.461,-0.678 -1.617,-0.899 -0.036,-0.044 -0.07,-0.062 -0.103,-0.048 -0.033,0.015 -0.047,0.045 -0.047,0.091 v 0.65 c 0,0.084 -0.046,0.123 -0.138,0.123 h -0.708 c -0.084,0 -0.124,-0.047 -0.124,-0.137 v -5.794 c 0,-0.083 0.044,-0.124 0.136,-0.124 h 0.847 c 0.081,0 0.122,0.046 0.122,0.139 v 3.276 c 0,0.826 0.283,1.563 1.384,1.563 0.128,0 0.264,-0.014 0.398,-0.044 0.037,-0.006 0.15,-0.027 0.183,0.141 0.031,0.167 0.165,0.814 0.165,0.814 0.018,0.057 0.021,0.099 0.008,0.132 C 0.491,-0.085 0.402,0 0,0" />
      </g>
      <g
         transform="matrix(0.35277777,0,0,-0.35277777,81.364075,268.2774)"
         id="g3596">
        <path
           inkscape:connector-curvature="0"
           id="path3598"
           style="fill:#f36f21;fill-opacity:1;fill-rule:nonzero;stroke:none"
           d="m 0,0 c 0,-0.101 -0.047,-0.153 -0.141,-0.153 h -2.287 c -0.098,0 -0.184,0.052 -0.184,0.153 0,0.826 0.497,1.381 1.297,1.381 C -0.406,1.381 0,0.835 0,0 m -1.32,2.337 c -1.741,0 -2.427,-1.293 -2.427,-2.391 v -1.508 c 0,-1.624 1.143,-2.335 2.462,-2.335 1.368,0 1.95,0.745 2.17,1.145 0.036,0.075 0,0.148 -0.11,0.222 l -0.484,0.333 c -0.11,0.072 -0.204,0.058 -0.276,-0.04 -0.158,-0.213 -0.6,-0.708 -1.33,-0.708 -0.729,0 -1.325,0.371 -1.325,1.383 v 0.275 c 0,0.157 0.111,0.252 0.247,0.252 h 3.195 c 0.198,0 0.305,0.164 0.305,0.331 v 0.65 c 0,1.098 -0.685,2.391 -2.427,2.391" />
      </g>
      <g
         transform="matrix(0.35277777,0,0,-0.35277777,82.537097,267.4871)"
         id="g3600">
        <path
           inkscape:connector-curvature="0"
           id="path3602"
           style="fill:#f36f21;fill-opacity:1;fill-rule:nonzero;stroke:none"
           d="M 0,0 H -0.821 C -0.914,0 -0.96,-0.041 -0.96,-0.123 v -6.598 c 0,-0.544 -0.187,-0.855 -0.663,-0.855 -0.048,0 -0.268,0.015 -0.334,0.027 -0.136,0.029 -0.215,-10e-4 -0.235,-0.096 l -0.123,-0.676 c -0.019,-0.075 -0.014,-0.127 0.013,-0.153 0.028,-0.027 0.141,-0.126 0.829,-0.126 0.984,0 1.619,0.613 1.619,1.757 v 6.72 C 0.146,-0.041 0.099,0 0,0" />
      </g>
      <g
         transform="matrix(0.35277777,0,0,-0.35277777,84.334641,268.82844)"
         id="g3604">
        <path
           inkscape:connector-curvature="0"
           id="path3606"
           style="fill:#f36f21;fill-opacity:1;fill-rule:nonzero;stroke:none"
           d="m 0,0 c -0.009,-0.408 -0.13,-1.383 -1.335,-1.383 -1.202,0 -1.32,0.986 -1.32,1.383 v 1.586 c 0,0.406 0.22,1.357 1.32,1.357 C -0.235,2.943 0,1.984 0,1.586 Z M -1.335,3.899 C -3.51,3.899 -3.76,2.286 -3.76,1.577 V 0 c 0,-0.748 0.295,-2.335 2.425,-2.335 2.133,0 2.443,1.59 2.443,2.335 v 1.577 c 0,0.738 -0.265,2.322 -2.443,2.322" />
      </g>
      <g
         transform="matrix(0.35277777,0,0,-0.35277777,82.247572,267.15676)"
         id="g3608">
        <path
           inkscape:connector-curvature="0"
           id="path3610"
           style="fill:#f36f21;fill-opacity:1;fill-rule:nonzero;stroke:none"
           d="M 0,0 H 0.84 C 0.888,0 0.919,0.012 0.938,0.041 0.957,0.066 0.967,0.097 0.967,0.123 V 1.297 C 0.967,1.342 0.952,1.38 0.925,1.407 0.895,1.436 0.853,1.441 0.797,1.421 L -0.014,1.228 C -0.099,1.2 -0.14,1.149 -0.14,1.076 V 0.123 C -0.14,0.041 -0.094,0 0,0" />
      </g>
      <g
         transform="matrix(0.35277777,0,0,-0.35277777,67.37372,267.45797)"
         id="g3612">
        <path
           inkscape:connector-curvature="0"
           id="path3614"
           style="fill:#ffffff;fill-opacity:1;fill-rule:nonzero;stroke:none"
           d="M 0,0 C -1.045,0 -1.587,-0.561 -1.771,-0.775 -1.826,-0.829 -1.882,-0.824 -1.937,-0.759 -2.129,-0.536 -2.656,0 -3.623,0 -5.156,0 -5.988,-0.997 -5.988,-2.308 v -3.706 c 0,-0.083 0.046,-0.124 0.136,-0.124 h 0.848 c 0.081,0 0.123,0.046 0.123,0.139 v 3.691 c 0,0.363 0.165,1.356 1.252,1.356 1.085,0 1.223,-0.998 1.223,-1.356 v -3.706 c 0,-0.083 0.044,-0.124 0.137,-0.124 h 0.844 c 0.081,0 0.124,0.046 0.124,0.139 v 3.691 c 0,0.365 0.142,1.356 1.233,1.356 1.088,0 1.242,-0.998 1.242,-1.356 v -3.706 c 0,-0.083 0.041,-0.124 0.126,-0.124 h 0.857 c 0.084,0 0.124,0.046 0.124,0.139 v 3.691 C 2.281,-0.997 1.567,0 0,0" />
      </g>
      <g
         transform="matrix(0.35277777,0,0,-0.35277777,70.21277,267.4871)"
         id="g3616">
        <path
           inkscape:connector-curvature="0"
           id="path3618"
           style="fill:#ffffff;fill-opacity:1;fill-rule:nonzero;stroke:none"
           d="M 0,0 H -0.845 C -0.927,0 -0.97,-0.048 -0.97,-0.137 v -3.665 c 0,-0.395 -0.137,-1.384 -1.327,-1.384 -1.189,0 -1.327,0.996 -1.327,1.384 v 3.679 C -3.624,-0.041 -3.665,0 -3.747,0 h -0.86 c -0.081,0 -0.122,-0.048 -0.122,-0.137 v -3.665 c 0,-1.505 0.913,-2.336 2.198,-2.336 0.763,0 1.296,0.36 1.423,0.483 0.127,0.125 0.194,0.007 0.194,-0.07 v -0.207 c 0,-0.082 0.045,-0.123 0.138,-0.123 H 0 c 0.093,0 0.135,0.045 0.135,0.139 v 5.793 C 0.135,-0.041 0.093,0 0,0" />
      </g>
      <g
         transform="matrix(0.35277777,0,0,-0.35277777,73.583597,267.4871)"
         id="g3620">
        <path
           inkscape:connector-curvature="0"
           id="path3622"
           style="fill:#ffffff;fill-opacity:1;fill-rule:nonzero;stroke:none"
           d="M 0,0 H -0.847 C -0.93,0 -0.971,-0.048 -0.971,-0.137 v -5.795 c 0,-0.082 0.044,-0.123 0.137,-0.123 h 0.848 c 0.08,0 0.121,0.041 0.121,0.123 v 5.795 C 0.135,-0.048 0.091,0 0,0" />
      </g>
      <g
         transform="matrix(0.35277777,0,0,-0.35277777,72.777359,267.4871)"
         id="g3624">
        <path
           inkscape:connector-curvature="0"
           id="path3626"
           style="fill:#ffffff;fill-opacity:1;fill-rule:nonzero;stroke:none"
           d="m 0,0 h -1.616 c -0.093,0 -0.138,0.048 -0.138,0.138 v 2.095 c 0,0.045 -0.015,0.084 -0.042,0.11 -0.027,0.029 -0.071,0.034 -0.126,0.015 L -2.735,2.164 C -2.817,2.136 -2.861,2.085 -2.861,2.013 v -6.341 c 0,-1.334 0.525,-1.81 1.646,-1.81 0.713,0 1.032,0.093 1.202,0.164 0.17,0.078 0.164,0.104 0.138,0.236 -0.026,0.132 -0.076,0.412 -0.109,0.567 -0.033,0.155 -0.101,0.182 -0.263,0.151 -0.164,-0.027 -0.481,-0.081 -0.817,-0.081 -0.493,0 -0.69,0.322 -0.69,0.773 v 3.235 c 0,0.093 0.048,0.14 0.149,0.14 H 0 c 0.093,0 0.14,0.045 0.14,0.14 v 0.687 C 0.14,-0.041 0.093,0 0,0" />
      </g>
      <g
         transform="matrix(0.35277777,0,0,-0.35277777,71.402831,269.28677)"
         id="g3628">
        <path
           inkscape:connector-curvature="0"
           id="path3630"
           style="fill:#ffffff;fill-opacity:1;fill-rule:nonzero;stroke:none"
           d="m 0,0 h -0.181 c -0.465,0 -0.608,0.179 -0.608,0.774 v 6.56 c 0,0.066 -0.03,0.161 -0.169,0.125 C -1.095,7.427 -1.77,7.265 -1.77,7.265 -1.853,7.238 -1.895,7.187 -1.895,7.114 v -6.34 c 0,-1.328 0.339,-1.838 1.492,-1.838 h 0.186 c 0.307,0 0.34,0.106 0.34,0.206 v 0.652 C 0.123,-0.078 0.111,0 0,0" />
      </g>
      <g
         transform="matrix(0.35277777,0,0,-0.35277777,73.571885,266.65543)"
         id="g3632">
        <path
           inkscape:connector-curvature="0"
           id="path3634"
           style="fill:#ffffff;fill-opacity:1;fill-rule:nonzero;stroke:none"
           d="m 0,0 -0.812,-0.193 c -0.084,-0.028 -0.125,-0.079 -0.125,-0.152 v -0.953 c 0,-0.082 0.045,-0.123 0.141,-0.123 h 0.839 c 0.046,0 0.078,0.011 0.099,0.041 0.015,0.025 0.026,0.056 0.026,0.082 v 1.174 c 0,0.044 -0.014,0.083 -0.041,0.109 C 0.099,0.015 0.056,0.019 0,0" />
      </g>
      <g
         transform="matrix(0.35277777,0,0,-0.35277777,77.915602,268.87832)"
         id="g3636">
        <path
           inkscape:connector-curvature="0"
           id="path3638"
           style="fill:#f36f21;fill-opacity:1;fill-rule:nonzero;stroke:none"
           d="m 0,0 c 0,-0.528 -0.246,-1.27 -1.231,-1.27 -1.128,0 -1.244,0.868 -1.244,1.219 0,0.689 0.449,1.216 1.231,1.216 C -0.667,1.165 0,0.941 0,0.617 Z m -1.037,4.041 c -0.971,0 -1.672,-0.285 -1.921,-0.414 -0.076,-0.03 -0.098,-0.089 -0.069,-0.179 l 0.234,-0.609 c 0.038,-0.102 0.106,-0.132 0.207,-0.085 0.084,0.049 0.748,0.33 1.424,0.33 1.006,0 1.231,-0.43 1.231,-1.201 0,-0.059 -0.001,-0.143 -0.057,-0.143 -0.072,0 -0.541,0.296 -1.284,0.296 -1.363,0 -2.24,-0.863 -2.24,-2.116 0,-1.251 0.73,-2.114 2.115,-2.114 0.829,0 1.2,0.311 1.383,0.496 0.046,0.047 0.088,0.065 0.124,0.057 0.036,-0.01 0.056,-0.044 0.056,-0.114 v -0.247 c 0,-0.071 0.042,-0.109 0.125,-0.109 h 0.76 c 0.085,0 0.124,0.045 0.124,0.139 v 3.816 c 0,1.558 -0.71,2.197 -2.212,2.197" />
      </g>
      <g
         transform="matrix(0.35277777,0,0,-0.35277777,75.740233,269.62314)"
         id="g3640">
        <path
           inkscape:connector-curvature="0"
           id="path3642"
           style="fill:#f36f21;fill-opacity:1;fill-rule:nonzero;stroke:none"
           d="M 0,0 C 0.128,0 0.212,0.052 0.249,0.154 L 2.268,5.863 C 2.314,5.992 2.279,6.055 2.158,6.055 H 1.396 C 1.241,6.055 1.146,6.002 1.119,5.889 L -0.276,1.464 C -0.295,1.418 -0.317,1.396 -0.338,1.396 c -0.022,0 -0.046,0.022 -0.063,0.068 l -1.397,4.425 c -0.027,0.113 -0.12,0.166 -0.277,0.166 h -0.76 c -0.121,0 -0.157,-0.063 -0.11,-0.192 L -0.927,0.154 C -0.89,0.052 -0.808,0 -0.678,0 Z" />
      </g>
      <g
         transform="matrix(0.35277777,0,0,-0.35277777,-132.21436,288.83337)"
         id="g5636">
        <g
           clip-path="url(#clipPath5642)"
           id="g5638">
          <g
             id="g5644">
            <g
               id="g5646">
              <path
                 inkscape:connector-curvature="0"
                 id="path5658"
                 style="fill:url(#radialGradient5656);stroke:none"
                 d="m 556.484,59.621 v 0 -0.001 z" />
            </g>
          </g>
        </g>
      </g>
    </g>
  </g>
</svg>
